#N canvas 0 63 644 317 10;
#X obj 108 28 adc~;
#X obj 111 282 dac~;
#X text 163 84 <-- Amplify the sound from the guitar;
#X text 225 137 <-- Hard-clip it to produce audible distortion;
#X text 163 29 <-- Read audio data from the soundcard (sound of the
guitar);
#X text 174 242 <-- Send the processed sound back to the soundcard
;
#X obj 108 122 clip~ -1 1;
#X obj 111 197 clip~ -1 1;
#X obj 113 236 *~ 0.2;
#X obj 109 159 overdrive~ 15;
#X obj 107 87 *~ 4;
#X connect 0 0 10 0;
#X connect 6 0 9 0;
#X connect 7 0 8 0;
#X connect 8 0 1 1;
#X connect 8 0 1 0;
#X connect 9 0 7 0;
#X connect 10 0 6 0;
